<?xml version="1.0" standalone="no"?>
<!DOCTYPE svg PUBLIC "-//W3C//DTD SVG 20010904//EN"
 "http://www.w3.org/TR/2001/REC-SVG-20010904/DTD/svg10.dtd">
<svg version="1.0" xmlns="http://www.w3.org/2000/svg"
 width="119.000000pt" height="119.000000pt" viewBox="0 0 119.000000 119.000000"
 preserveAspectRatio="xMidYMid meet">

<g transform="translate(0.000000,119.000000) scale(0.100000,-0.100000)"
fill="#000000" stroke="none">
<path d="M523 1116 c-85 -28 -142 -77 -185 -160 -17 -32 -23 -66 -27 -151 l-6
-110 -46 -5 c-55 -7 -93 -30 -119 -73 -18 -29 -20 -52 -20 -245 0 -224 2 -235
48 -284 42 -45 92 -50 472 -46 327 3 347 4 380 24 19 11 45 35 57 54 22 32 23
42 23 244 0 181 -3 216 -18 245 -24 49 -64 75 -125 81 l-52 5 -5 120 c-4 89
-10 129 -23 153 -27 50 -94 112 -145 134 -58 26 -154 32 -209 14z m163 -125
c78 -35 107 -99 102 -221 l-3 -75 -178 -3 -179 -2 4 103 c3 96 5 106 32 141
53 70 143 93 222 57z m276 -422 c16 -9 18 -28 18 -197 0 -133 -4 -192 -12
-200 -9 -9 -103 -12 -359 -12 -303 0 -350 2 -363 16 -13 13 -16 45 -16 194 0
170 1 180 21 194 18 12 77 14 357 14 194 0 344 -4 354 -9z"/>
</g>
</svg>
